# xmcd CD database file generated by Grip 3.0.7
# 
# Track frame offsets:
#       150
#       35283
#       51413
#       82810
#       113010
#       124190
#       143738
#       160408
#       175643
#       188220
#       207085
#       226948
#       245258
#       300100
# 
# Disc length: 4283 seconds
# 
# Revision: 4
# Processed by: cddbd v1.5.2PL0 Copyright (c) Steve Scherf et al.
# Submitted via: Grip 3.0.7
# 
DISCID=a710b90e
DTITLE=Sky - Sky 2
DYEAR=1980
DGENRE=Instrumental
TTITLE0=Hotta
TTITLE1=Dance of the little fairies
TTITLE2=Sahara
TTITLE3=Fifo: Fifo
TTITLE4=Fifo: Adagio
TTITLE5=Fifo: Scherzo
TTITLE6=Fifo: Watching the aeroplanes
TTITLE7=Tuba smarties
TTITLE8=Ballet-volta
TTITLE9=Tristan's magic garden
TTITLE10=El cielo
TTITLE11=Vivaldi
TTITLE12=Scipio
TTITLE13=Part I and Part II Toccata
EXTD=ID3G:   0
EXTT0=
EXTT1=
EXTT2=
EXTT3=
EXTT4=
EXTT5=
EXTT6=
EXTT7=
EXTT8=
EXTT9=
EXTT10=
EXTT11=
EXTT12=
EXTT13=
PLAYORDER=
